<svg xmlns="http://www.w3.org/2000/svg" viewBox="0 0 48 48"><defs><style>.cls-1,.cls-2,.cls-3{fill:none;}.cls-1,.cls-2{stroke:#f13f74;stroke-linejoin:round;stroke-width:2px;}.cls-2{stroke-linecap:round;}</style></defs><title>Icon-FAQ</title><g id="Layer_2" data-name="Layer 2"><g id="Artwork"><path class="cls-1" d="M47,24a4,4,0,0,0-3.27-3.92,4,4,0,0,0-3-7.25,4,4,0,0,0-5.55-5.55,4,4,0,0,0-7.25-3,4,4,0,0,0-7.85,0,4,4,0,0,0-7.25,3,4,4,0,0,0-5.55,5.55,4,4,0,0,0-3,7.25,4,4,0,0,0,0,7.85,4,4,0,0,0,3,7.25,4,4,0,0,0,5.55,5.55,4,4,0,0,0,7.25,3,4,4,0,0,0,7.85,0,4,4,0,0,0,7.25-3,4,4,0,0,0,5.55-5.55,4,4,0,0,0,3-7.25A4,4,0,0,0,47,24Z"/><path class="cls-2" d="M19,18.5a6,6,0,1,1,6,6v6"/><path class="cls-1" d="M26,35.5a1,1,0,0,1-1,1h0a1,1,0,0,1-1-1h0a1,1,0,0,1,1-1h0a1,1,0,0,1,1,1Z"/><path class="cls-3" d="M0,0H48V48H0Z"/></g></g></svg>