<svg xmlns="http://www.w3.org/2000/svg" viewBox="0 0 140.1 18.45"><defs><style>.cls-1{fill:#333;}</style></defs><title>Logo-WideOpen</title><g id="Layer_2" data-name="Layer 2"><g id="Artwork"><path class="cls-1" d="M15.74,18.38,8.25,13.51a.09.09,0,0,0-.09,0L.66,18.38A.43.43,0,0,1,0,18V.43A.43.43,0,0,1,.43,0H16a.43.43,0,0,1,.43.43V18A.43.43,0,0,1,15.74,18.38ZM14.27,1.91H8.52a.21.21,0,0,0-.21.21v9a.21.21,0,0,0,.1.18l5.75,3.76a.21.21,0,0,0,.33-.18V2.13A.21.21,0,0,0,14.27,1.91Z"/><path class="cls-1" d="M133.34,11.85a1.42,1.42,0,0,1,1.47-1.43,1.32,1.32,0,0,1,1,.4h0a.08.08,0,0,1,0,.09l-.26.33a.08.08,0,0,1-.11,0h0a.93.93,0,0,0-.67-.25.78.78,0,0,0-.77.85.83.83,0,0,0,.84.82,1,1,0,0,0,.66-.2h0a.08.08,0,0,1,.12,0l.22.32a.08.08,0,0,1,0,.1h0a1.34,1.34,0,0,1-1,.37A1.45,1.45,0,0,1,133.34,11.85Z"/><path class="cls-1" d="M136.22,11.85a1.46,1.46,0,0,1,1.49-1.43,1.45,1.45,0,0,1,1.48,1.44,1.49,1.49,0,0,1-3,0Zm2.31,0a.82.82,0,1,0-1.64,0,.85.85,0,0,0,.8.85A.82.82,0,0,0,138.52,11.86Z"/><path class="cls-1" d="M139.4,12.92a.35.35,0,0,1,.7,0,.35.35,0,0,1-.35.35A.36.36,0,0,1,139.4,12.92Z"/><path class="cls-1" d="M46.33,12.78V3.46A.43.43,0,0,1,46.76,3h1.05a.43.43,0,0,1,.43.43v9.32a.43.43,0,0,1-.43.43H46.76A.43.43,0,0,1,46.33,12.78Z"/><path class="cls-1" d="M67.16,12.78V3.46A.43.43,0,0,1,67.59,3h5.2a.43.43,0,0,1,.43.43v.87a.43.43,0,0,1-.43.43h-3.5a.21.21,0,0,0-.21.21V6.74a.21.21,0,0,0,.21.21H72a.43.43,0,0,1,.43.43v.88a.43.43,0,0,1-.43.43H69.29a.21.21,0,0,0-.21.21v2.36a.21.21,0,0,0,.21.21H73.2a.43.43,0,0,1,.43.43v.88a.43.43,0,0,1-.43.43H67.59A.43.43,0,0,1,67.16,12.78Z"/><path class="cls-1" d="M37.22,8.26l1.92-5a.43.43,0,0,1,.4-.27h1.17a.43.43,0,0,1,.4.59L37.37,13.3a.21.21,0,0,1-.39,0L34.22,7.08a.21.21,0,0,0-.39,0l-2.7,6.22a.21.21,0,0,1-.39,0L26.93,3.62A.43.43,0,0,1,27.32,3h1.19a.43.43,0,0,1,.4.27l2,5a.21.21,0,0,0,.39,0l2.58-5.24a.21.21,0,0,1,.38,0l2.59,5.21A.21.21,0,0,0,37.22,8.26Z"/><path class="cls-1" d="M55.89,13.21H54.25a.43.43,0,0,1-.43-.43V3.46A.43.43,0,0,1,54.25,3h2.66c3.05,0,5.53,1.76,5.53,5.1,0,3-1.95,4.77-5,5Zm1.46-1.75a3.05,3.05,0,0,0,3-3.37,3.14,3.14,0,0,0-3.24-3.32H55.94a.21.21,0,0,0-.21.21v6.28a.21.21,0,0,0,.22.21Z"/><path class="cls-1" d="M109.3,12.78V3.46a.43.43,0,0,1,.43-.43h5.2a.43.43,0,0,1,.43.43v.87a.43.43,0,0,1-.43.43h-3.5a.21.21,0,0,0-.21.21V6.74a.21.21,0,0,0,.21.21h2.69a.43.43,0,0,1,.43.43v.88a.43.43,0,0,1-.43.43h-2.69a.21.21,0,0,0-.21.21v2.36a.21.21,0,0,0,.21.21h3.92a.43.43,0,0,1,.43.43v.88a.43.43,0,0,1-.43.43h-5.61A.43.43,0,0,1,109.3,12.78Z"/><path class="cls-1" d="M87.83,13.43a5.47,5.47,0,0,1-5.59-5.31A5.47,5.47,0,0,1,87.83,2.8a5.4,5.4,0,0,1,5.55,5.36A5.47,5.47,0,0,1,87.83,13.43Zm0-8.91a3.55,3.55,0,0,0-3.56,3.55,3.65,3.65,0,0,0,3.47,3.66,3.56,3.56,0,0,0,3.6-3.58A3.56,3.56,0,0,0,87.83,4.52Z"/><path class="cls-1" d="M129.44,13.26l-6.78-6a.21.21,0,0,0-.35.16v5.31a.43.43,0,0,1-.43.43h-1a.43.43,0,0,1-.43-.43V3.14A.21.21,0,0,1,120.8,3l6.76,6.21a.21.21,0,0,0,.36-.16V3.46a.43.43,0,0,1,.43-.43h1a.43.43,0,0,1,.43.43V13.1A.21.21,0,0,1,129.44,13.26Z"/><path class="cls-1" d="M100,9.77v3a.43.43,0,0,1-.43.43H98.48a.43.43,0,0,1-.43-.43V3.46A.43.43,0,0,1,98.48,3h1.85c2.55,0,4.41.77,4.41,3.28,0,2-1.29,3.37-4.06,3.37H100A.09.09,0,0,0,100,9.77Zm.67-1.82c1.4,0,2.08-.63,2.08-1.64s-.59-1.55-1.87-1.55h-.67A.21.21,0,0,0,100,5V7.74a.21.21,0,0,0,.21.21Z"/></g></g></svg>