<?xml version="1.0" encoding="UTF-8"?>
<svg fill="#333333" width="100pt" height="100pt" version="1.1" viewBox="0 0 100 100" xmlns="http://www.w3.org/2000/svg">
 <g>
  <path d="m36.371 50.57h-8.7812c-0.003906-1.3438 0.11719-2.6797 0.35938-4 0-0.19141 0.058593-0.37891 0.10156-0.57031 0.95312-5.2891 3.7852-10.059 7.9766-13.426 4.1875-3.3672 9.4531-5.1055 14.828-4.8984 5.3711 0.20312 10.484 2.3438 14.406 6.0234 0.046875 0.03125 0.089843 0.070312 0.12891 0.10938l7.5508-7.5312v0.003906c-6.3477-5.9414-14.77-9.1602-23.461-8.9688-8.6914 0.19141-16.961 3.7773-23.043 9.9883-6.082 6.2109-9.4922 14.555-9.4961 23.25h-8.6133l14 14 6.7695-6.7617z"/>
  <path d="m77.66 35.391l-6.7695 6.7617-7.2617 7.2617h8.7812v-0.003906c0.003906 1.3398-0.11719 2.6797-0.35938 4 0 0.19141-0.058593 0.37891-0.10156 0.57031-0.95703 5.2891-3.793 10.055-7.9883 13.418-4.1914 3.3633-9.457 5.1016-14.828 4.8906-5.3711-0.21094-10.488-2.3555-14.402-6.0391-0.30859-0.26953-0.60938-0.55078-0.91016-0.85156l-7.5312 7.5312c6.2383 6.2383 14.699 9.7422 23.52 9.7422 8.8242 0 17.281-3.5039 23.52-9.7422 6.2383-6.2383 9.7422-14.699 9.7422-23.52h8.6016z"/>
 </g>
</svg>
