<svg xmlns="http://www.w3.org/2000/svg" viewBox="0 0 48 48"><defs><style>.cls-1,.cls-2,.cls-3{fill:none;}.cls-1,.cls-2{stroke:#ff6970;stroke-linejoin:round;stroke-width:2px;}.cls-2{stroke-linecap:round;}</style></defs><title>Icon-LoveSpeech</title><g id="Layer_2" data-name="Layer 2"><g id="Artwork"><path class="cls-1" d="M36,47s11-8,11-13.93c0-6.84-9-9-11-.68-2-8.32-11-6.16-11,.68C25,39,36,47,36,47Z"/><path class="cls-2" d="M19,34.87A25.31,25.31,0,0,1,14,34L3,39l4-9A15.09,15.09,0,0,1,1,18C1,8.61,10.33,1,21.84,1S43,8.61,43,18a13.77,13.77,0,0,1-.14,2"/><path class="cls-3" d="M0,0H48V48H0Z"/></g></g></svg>