<svg xmlns="http://www.w3.org/2000/svg" viewBox="0 0 48 48"><defs><style>.cls-1,.cls-2,.cls-3{fill:none;}.cls-1,.cls-2{stroke:#6acaef;stroke-linejoin:round;stroke-width:2px;}.cls-2{stroke-linecap:round;}</style></defs><title>Icon-Ethics</title><g id="Layer_2" data-name="Layer 2"><g id="Artwork"><path class="cls-1" d="M1,29H9V45H1Z"/><path class="cls-2" d="M9,42c21.46,7.15,13.54,7.23,38-5-2.12-2.12-3.81-2.63-6-2l-8.87,2.94"/><path class="cls-2" d="M9,31h6a13.18,13.18,0,0,1,9,4h6c3.19,0,3.19,4,0,4H19"/><path class="cls-2" d="M13.7,24.19a16,16,0,1,1,22.48,6.56"/><path class="cls-2" d="M39.83,6.22s-.7,3.82-3.48,5.21c-2.78-.7-5.56,1.39-4.87,1.39s1.39,2.78,1.39,2.78c.7.7,2.09,0,2.09,0,1.74,1.74-2.78,4.87-2.78,5.57s1.74,1,.69,2.09a5.94,5.94,0,0,1-2.08,1.39c0,3.48-3.48,3.48-4.17,3.48s-2.09-2.78-2.09-3.48.7-1.39.7-2.09-1.39-2.09-1.39-2.09c0-2.78-2.09-2.09-4.17-2.09s-2.09-2.78-2.09-2.78,0-4.87,3.48-5.56,3.48.7,3.48.7c1.39,1.39,4.17,0,5.57,0,0,0,.7-4.87-.7-4.18s-2.64.16-2.78-1.39C26.41,3,32.68,1.7,32.68,1.7"/><path class="cls-3" d="M0,0H48V48H0Z"/></g></g></svg>