<svg xmlns="http://www.w3.org/2000/svg" viewBox="0 0 48 48"><defs><style>.cls-1,.cls-2{fill:none;}.cls-1{stroke:#6acaef;stroke-linejoin:round;stroke-width:2px;}</style></defs><title>Icon-Best</title><g id="Layer_2" data-name="Layer 2"><g id="Artwork"><path class="cls-1" d="M37.72,20.73,41,18l-3.28-2.73,2-3.78-4.07-1.27L36,6l-4.25.39L30.5,2.29l-3.77,2L24,1,21.27,4.28l-3.78-2L16.23,6.37,12,6l.39,4.25L8.29,11.49l2,3.78L7,18l3.28,2.73-2,3.78,4.07,1.27L12,30l4.25-.39,1.27,4.07,3.78-2L24,35l2.73-3.28,3.77,2,1.27-4.07L36,30l-.38-4.25,4.07-1.27Z"/><path class="cls-1" d="M24,8l3,5h6l-5,5,2,7-6-3.75L18,25l2-7-5-5h6Z"/><path class="cls-1" d="M39.92,29.27,46.68,41,39,39.66,36.3,47,31,38"/><path class="cls-1" d="M8.08,29.27,1.32,41,9,39.66,11.7,47,17,38"/><path class="cls-2" d="M0,0H48V48H0Z"/></g></g></svg>