<svg xmlns="http://www.w3.org/2000/svg" viewBox="0 0 24 24"><defs><style>.cls-1{fill:#333;}.cls-2{fill:none;}</style></defs><title>Icon-Twitter</title><g id="Layer_2" data-name="Layer 2"><g id="Artwork"><path class="cls-1" d="M23.44,4.83a2.43,2.43,0,0,1-2.23,0c.94-.56,1-1,1.32-2a9.1,9.1,0,0,1-2.89,1.1A4.55,4.55,0,0,0,11.79,7a4.6,4.6,0,0,0,.12,1A12.9,12.9,0,0,1,2.54,3.33,4.55,4.55,0,0,0,3.95,9.4a4.53,4.53,0,0,1-2.06-.57s0,0,0,.06a4.55,4.55,0,0,0,3.65,4.46,4.58,4.58,0,0,1-2.05.08,4.55,4.55,0,0,0,4.24,3.15A9.14,9.14,0,0,1,1,18.46a12.87,12.87,0,0,0,7,2A12.84,12.84,0,0,0,20.89,7.57c0-.2,0-.39,0-.59A9.7,9.7,0,0,0,23.44,4.83Z"/><path class="cls-2" d="M0,0H24V24H0Z"/></g></g></svg>