<svg xmlns="http://www.w3.org/2000/svg" viewBox="0 0 238.7 40"><defs><style>.cls-1{fill:#333;}.cls-2{fill:#ff6970;}.cls-3{fill:#f13f74;}.cls-4{fill:#6acaef;}</style></defs><title>Logo-TheSizzle</title><g id="Layer_2" data-name="Layer 2"><g id="Artwork"><path class="cls-1" d="M126.19,31.29a11.23,11.23,0,0,0,1.71.43,12.89,12.89,0,0,0,1.71.31,16.61,16.61,0,0,0,2,.12q1.79,0,2-1.32a1.24,1.24,0,0,0-.36-1,12.61,12.61,0,0,0-1.17-1.17q-.72-.64-1.54-1.42a9.9,9.9,0,0,1-1.47-1.79,7.52,7.52,0,0,1-1-2.27,6.88,6.88,0,0,1,0-2.9A8.6,8.6,0,0,1,129.29,17a8.38,8.38,0,0,1,2.24-2.33,10.13,10.13,0,0,1,3-1.42,12.22,12.22,0,0,1,3.45-.49,17.53,17.53,0,0,1,1.85.1l1.64.17,1.63.23-1.28,7.27-.69-.08-.69-.08a8,8,0,0,0-.81,0l-.59,0a3.92,3.92,0,0,0-.68.1,1.66,1.66,0,0,0-.59.27.82.82,0,0,0-.33.54q-.05.31.39.78t1.09,1.09q.65.62,1.42,1.44a8.83,8.83,0,0,1,2.21,4.24,7.57,7.57,0,0,1,0,3A10.57,10.57,0,0,1,141.43,35a8.75,8.75,0,0,1-2.15,2.6A10.11,10.11,0,0,1,136,39.36a13.58,13.58,0,0,1-4.35.64,25.05,25.05,0,0,1-2.72-.14q-1.24-.14-2.18-.33a16.68,16.68,0,0,1-2-.47Z"/><path class="cls-1" d="M148.74,13.42h8.78l-4.57,25.92h-8.78Z"/><path class="cls-1" d="M167.61,20.22h-7.15l3.84-6.8h16.59L168.5,32.54H177l-3.8,6.8h-18Z"/><path class="cls-1" d="M188.77,20.22h-7.15l3.84-6.8h16.59L189.67,32.54h8.51l-3.8,6.8h-18Z"/><path class="cls-1" d="M204.81,13.42h8.63l-3.37,19.12h7.15l-1.2,6.8H200.23Z"/><path class="cls-1" d="M223.42,13.42H238.7l-1.2,6.8h-7L230,23.09h6.88l-1.14,6.45h-6.88l-.53,3h7.27l-1.2,6.8H218.85Z"/><path class="cls-1" d="M4.78,20.22H0l1.2-6.8H19.31l-1.2,6.8H13.33L10,39.34H1.41Z"/><path class="cls-1" d="M22.3,13.42h8.28L29,22.24h4.62l1.56-8.82h8.32L39,39.34H30.63l1.69-9.6H27.7L26,39.34H17.73Z"/><path class="cls-1" d="M47,13.42H62.26l-1.2,6.8h-7l-.51,2.88h6.88l-1.14,6.45H52.42l-.53,3h7.27L58,39.34H42.41Z"/><path class="cls-2" d="M83.22,39.34s5.27-9.11,13.6-13.51C108.48,19.67,107.31,9,107.31,9s20.67,6.4,12.81,30.36Z"/><path class="cls-3" d="M61.17,39.34C67.37,19.67,102.07,0,102.07,0s-9.36,22.87,10.51,39.34Z"/><path class="cls-4" d="M95.07,26.9s-7.77,5-7.3,12.43H98.62A28.87,28.87,0,0,1,95.07,26.9Z"/></g></g></svg>