<?xml version="1.0" encoding="UTF-8"?>
<svg fill="#333333" width="100pt" height="100pt" version="1.1" viewBox="0 0 100 100" xmlns="http://www.w3.org/2000/svg">
 <path d="m50 3.6992c-25.5 0-46.301 20.801-46.301 46.301s20.801 46.301 46.301 46.301 46.301-20.801 46.301-46.301-20.801-46.301-46.301-46.301zm22.301 17.102l-51.5 51.5c-5.6992-7.5-8.3008-16.699-7.3984-26.102 1-9.8008 5.8008-18.602 13.398-24.801 6.5-5.3008 14.801-8.1992 23.199-8.1992 8.1016 0 15.898 2.6992 22.301 7.6016zm14.301 32.699c-0.89844 9.8008-5.6016 18.602-13.199 24.898-6.6016 5.3984-14.898 8.3984-23.398 8.3984-8.1016 0-16.102-2.6992-22.5-7.6992l51.602-51.602c5.793 7.4023 8.3945 16.605 7.4961 26.004z"/>
</svg>
