<?xml version="1.0" encoding="UTF-8"?>
<svg fill="#FFFFFF" width="100pt" height="100pt" version="1.1" viewBox="0 0 100 100" xmlns="http://www.w3.org/2000/svg">
 <g>
  <path d="m67.398 32.602c-0.80078-0.80078-2-0.80078-2.8008 0l-14.598 14.598-14.602-14.598c-0.80078-0.80078-2-0.80078-2.8008 0-0.80078 0.80078-0.80078 2 0 2.8008l14.602 14.598-14.598 14.602c-0.80078 0.80078-0.80078 2 0 2.8008 0.39844 0.39844 0.89844 0.59766 1.3984 0.59766s1-0.19922 1.3984-0.60156l14.602-14.598 14.602 14.602c0.39844 0.39844 0.89844 0.59766 1.3984 0.59766s1-0.19922 1.3984-0.60156c0.80078-0.80078 0.80078-2 0-2.8008l-14.598-14.598 14.602-14.602c0.79688-0.79688 0.79688-2-0.003906-2.7969z"/>
  <path d="m50 8c-23.199 0-42 18.801-42 42s18.801 42 42 42 42-18.801 42-42-18.801-42-42-42zm0 80c-21 0-38-17-38-38s17-38 38-38 38 17 38 38-17 38-38 38z"/>
 </g>
</svg>
